<?xml version="1.0" encoding="UTF-8" standalone="no"?>
<svg
   xmlns:dc="http://purl.org/dc/elements/1.1/"
   xmlns:cc="http://creativecommons.org/ns#"
   xmlns:rdf="http://www.w3.org/1999/02/22-rdf-syntax-ns#"
   xmlns:svg="http://www.w3.org/2000/svg"
   xmlns="http://www.w3.org/2000/svg"
   xmlns:sodipodi="http://sodipodi.sourceforge.net/DTD/sodipodi-0.dtd"
   xmlns:inkscape="http://www.inkscape.org/namespaces/inkscape"
   viewBox="0 0 376.93677 206.25967"
   preserveAspectRatio="xMidYMid meet"
   class="css-a32uf1 logo"
   id="dfgcdbea"
   version="1.1"
   sodipodi:docname="logo.svg"
   inkscape:version="0.92.2 2405546, 2018-03-11"
   width="376.93677"
   height="206.25967">
  <metadata
     id="metadata19">
    <rdf:RDF>
      <cc:Work
         rdf:about="">
        <dc:format>image/svg+xml</dc:format>
        <dc:type
           rdf:resource="http://purl.org/dc/dcmitype/StillImage" />
        <dc:title></dc:title>
      </cc:Work>
    </rdf:RDF>
  </metadata>
  <sodipodi:namedview
     pagecolor="#ffffff"
     bordercolor="#666666"
     borderopacity="1"
     objecttolerance="10"
     gridtolerance="10"
     guidetolerance="10"
     inkscape:pageopacity="0"
     inkscape:pageshadow="2"
     inkscape:window-width="1920"
     inkscape:window-height="1015"
     id="namedview17"
     showgrid="false"
     inkscape:zoom="0.97082228"
     inkscape:cx="185.15703"
     inkscape:cy="109"
     inkscape:window-x="0"
     inkscape:window-y="0"
     inkscape:window-maximized="1"
     inkscape:current-layer="dfgcdbea"
     fit-margin-top="0"
     fit-margin-left="0"
     fit-margin-right="0"
     fit-margin-bottom="0" />
  <defs
     id="SvgjsDefs2120" />
  <g
     id="SvgjsG2121"
     featurekey="root"
     style="fill:#aa4400"
     transform="translate(-3.342969,-21.740328)" />
  <g
     id="SvgjsG2122"
     featurekey="symbol1"
     transform="matrix(1.3122739,-0.62951276,0.62951276,1.3122739,86.450038,24.331616)"
     style="fill:#f68a32;fill-opacity:1">
    <path
       d="m 13.268,63.46 c -1.008,0 -1.876,-0.76 -1.984,-1.788 -0.984,-9.216 1.28,-22.132 8.592,-28.704 0.64,-0.58 1.58,-0.672 2.312,-0.26 0.752,0.416 1.144,1.264 0.992,2.104 -1.356,7.416 -0.172,11.312 1.392,12.484 0.9,0.676 1.916,0.412 2.6,0.068 1.908,-0.94 3.824,-3.696 3.836,-7.708 0.008,-3.024 -0.492,-6.172 -1.028,-9.508 -1.532,-9.608 -3.268,-20.496 8.492,-29.064 0.696,-0.504 1.632,-0.516 2.34,-0.016 0.704,0.5 1.004,1.396 0.752,2.22 -3.968,12.956 -1.564,19.372 0.26,20.952 0.584,0.52 0.916,0.372 1.016,0.32 0.672,-0.316 1.916,-2.06 1.816,-6.392 -0.016,-0.784 0.416,-1.504 1.12,-1.848 0.716,-0.336 1.552,-0.24 2.148,0.256 6.356,5.28 8.904,13.164 8.6,18.636 -0.156,2.872 -1.452,6.024 -2.704,9.08 -1.204,2.916 -2.836,6.908 -1.712,7.548 0.42,0.244 0.828,0.312 1.452,-0.1 2.384,-1.54 4.852,-8 4.336,-13.34 -0.072,-0.72 0.256,-1.42 0.86,-1.832 0.592,-0.416 1.368,-0.464 2.016,-0.152 5.96,2.932 10.54,13.008 10.204,21.808 -0.048,1.084 -0.928,2.46 -2,2.46 -0.024,0 -0.056,0 -0.08,0 -1.1,0 -1.968,-1.508 -1.92,-2.612 0.236,-6.016 -2.204,-12.196 -5.148,-15.524 -0.564,5.104 -2.752,10.52 -6.084,12.688 -1.812,1.168 -3.796,1.176 -5.6,0.152 -4.192,-2.38 -1.976,-7.812 -0.024,-12.58 1.124,-2.748 2.288,-5.596 2.416,-7.792 C 52.724,31.596 51.42,26.7 48.264,22.648 47.656,25.384 46.368,27.32 44.536,28.184 42.784,28.996 40.8,28.66 39.192,27.268 36.44,24.884 34.336,18.824 36.064,8.98 c -4.428,6.148 -3.312,13.18 -2.132,20.54 0.532,3.344 1.084,6.804 1.076,10.148 -0.012,5.028 -2.396,9.456 -6.06,11.28 -2.368,1.172 -4.836,1.012 -6.788,-0.452 -1.428,-1.084 -3.42,-3.588 -3.572,-9.216 -2.984,5.852 -4.008,13.704 -3.336,19.964 0.108,1.096 -0.68,2.084 -1.772,2.204 -0.064,0.008 -0.136,0.012 -0.212,0.012 z"
       id="path4"
       style="fill:#f68a32;fill-opacity:1"
       inkscape:connector-curvature="0" />
    <path
       d="m 54.172,95.3 v 0 c -1.188,0 -2.416,-0.02 -3.648,-0.068 C 28.564,94.468 15.072,85.116 4.768,76.068 0.612,72.42 -1.008,67.984 0.408,64.196 2.324,59.1 9.368,57.404 15.66,60.992 c 10.276,5.868 23.292,6.46 34.948,1.404 17.92,-7.776 31.016,-5.032 34.244,6.808 1.868,6.852 1.132,12.524 -2.18,16.856 -4.68,6.132 -14.272,9.24 -28.5,9.24 z M 8.668,62.98 c -2.172,0 -3.908,1.008 -4.512,2.632 -0.816,2.164 0.404,4.944 3.252,7.452 9.764,8.584 22.548,17.448 43.248,18.172 1.196,0.044 2.368,0.068 3.508,0.068 0.008,0 0.008,0 0.008,0 12.736,0 21.484,-2.652 25.32,-7.664 C 82,80.348 82.508,75.848 80.984,70.264 79.476,64.712 75.392,61.9 68.828,61.9 64.172,61.9 58.572,63.308 52.204,66.072 39.416,71.636 25.036,70.968 13.676,64.476 11.964,63.496 10.236,62.98 8.668,62.98 Z"
       id="path6"
       style="fill:#f68a32;fill-opacity:1"
       inkscape:connector-curvature="0" />
    <path
       d="m 75.916,71.408 c -0.976,0 -1.828,-0.72 -1.976,-1.716 -0.156,-1.088 0.6,-2.104 1.704,-2.26 5.14,-0.752 6.256,-3.636 7.68,-7.296 1.46,-3.812 3.288,-8.56 10.772,-8.56 1.1,0 2,0.896 2,2 0,1.1 -0.9,2 -2,2 -4.744,0 -5.664,2.384 -7.056,5.996 -1.5,3.892 -3.368,8.736 -10.836,9.812 -0.104,0.016 -0.188,0.024 -0.288,0.024 z"
       id="path8"
       style="fill:#f68a32;fill-opacity:1"
       inkscape:connector-curvature="0" />
    <path
       d="m 75.124,91.236 c -0.436,0 -0.892,-0.144 -1.256,-0.444 -0.852,-0.696 -0.984,-1.956 -0.288,-2.812 0.752,-0.916 1.42,-2.272 0.408,-3.536 -1.376,-1.676 -4.916,-2.396 -8.82,-0.416 -0.908,0.448 -1.992,0.172 -2.564,-0.66 -0.564,-0.828 -0.42,-1.948 0.32,-2.616 2.836,-2.536 3.056,-5.02 2.368,-6.376 -0.72,-1.436 -2.452,-2.04 -4.624,-1.584 -1,0.184 -1.908,-0.324 -2.256,-1.224 -0.36,-0.9 -0.024,-1.92 0.796,-2.432 2.548,-1.592 2.696,-3.608 2.056,-4.856 -0.252,-0.496 -0.892,-1.252 -1.64,-0.936 -1.024,0.424 -2.188,-0.068 -2.608,-1.084 -0.42,-1.016 0.064,-2.192 1.084,-2.608 2.516,-1.044 5.352,0.128 6.728,2.796 0.952,1.856 1.1,4.332 -0.116,6.62 1.836,0.592 3.32,1.804 4.18,3.516 0.968,1.92 0.992,4.128 0.188,6.28 3.54,-0.22 6.444,1.1 8.04,3.072 2.008,2.496 1.868,5.78 -0.408,8.572 -0.432,0.476 -1,0.728 -1.588,0.728 z"
       id="path10"
       style="fill:#f68a32;fill-opacity:1"
       inkscape:connector-curvature="0" />
  </g>
  <g
     id="SvgjsG2123"
     featurekey="text1"
     transform="matrix(3.7974688,0,0,3.7974688,-3.037975,114.05713)"
     style="fill:#f68a32;fill-opacity:1">
    <path
       d="m 5.22,22.3 q 1.12,0 1.7,-0.12 V 19.5 Q 6.72,19.44 6.34,19.38 5.96,19.32 5.5,19.32 q -0.4,0 -0.81,0.06 -0.41,0.06 -0.74,0.22 -0.33,0.16 -0.53,0.45 -0.2,0.29 -0.2,0.73 0,0.86 0.54,1.19 0.54,0.33 1.46,0.33 z m -0.2,-9.02 q 1.2,0 2.02,0.3 0.82,0.3 1.31,0.84 0.49,0.54 0.7,1.31 0.21,0.77 0.21,1.69 v 6.34 Q 8.7,23.88 7.57,24.05 6.44,24.22 5.02,24.22 4.08,24.22 3.3,24.04 2.52,23.86 1.97,23.46 1.42,23.06 1.11,22.42 0.8,21.78 0.8,20.84 q 0,-0.9 0.35,-1.52 0.35,-0.62 0.95,-1.01 0.6,-0.39 1.39,-0.56 0.79,-0.17 1.65,-0.17 0.4,0 0.84,0.05 0.44,0.05 0.94,0.17 v -0.4 q 0,-0.42 -0.1,-0.8 Q 6.72,16.22 6.47,15.93 6.22,15.64 5.81,15.48 5.4,15.32 4.78,15.32 q -0.84,0 -1.54,0.12 -0.7,0.12 -1.14,0.28 L 1.8,13.76 Q 2.26,13.6 3.14,13.44 4.02,13.28 5.02,13.28 Z m 14.52,1.96 q -0.4,0.42 -1.05,1.18 -0.65,0.76 -1.39,1.69 -0.74,0.93 -1.49,1.94 -0.75,1.01 -1.35,1.93 h 5.4 V 24 h -8.32 v -1.5 q 0.44,-0.8 1.1,-1.74 0.66,-0.94 1.36,-1.89 0.7,-0.95 1.39,-1.81 0.69,-0.86 1.23,-1.5 H 11.6 v -2.02 h 7.94 z m 6.04,7.06 q 1.12,0 1.7,-0.12 V 19.5 q -0.2,-0.06 -0.58,-0.12 -0.38,-0.06 -0.84,-0.06 -0.4,0 -0.81,0.06 -0.41,0.06 -0.74,0.22 -0.33,0.16 -0.53,0.45 -0.2,0.29 -0.2,0.73 0,0.86 0.54,1.19 0.54,0.33 1.46,0.33 z m -0.2,-9.02 q 1.2,0 2.02,0.3 0.82,0.3 1.31,0.84 0.49,0.54 0.7,1.31 0.21,0.77 0.21,1.69 v 6.34 q -0.56,0.12 -1.69,0.29 -1.13,0.17 -2.55,0.17 -0.94,0 -1.72,-0.18 -0.78,-0.18 -1.33,-0.58 -0.55,-0.4 -0.86,-1.04 -0.31,-0.64 -0.31,-1.58 0,-0.9 0.35,-1.52 0.35,-0.62 0.95,-1.01 0.6,-0.39 1.39,-0.56 0.79,-0.17 1.65,-0.17 0.4,0 0.84,0.05 0.44,0.05 0.94,0.17 v -0.4 q 0,-0.42 -0.1,-0.8 -0.1,-0.38 -0.35,-0.67 -0.25,-0.29 -0.66,-0.45 -0.41,-0.16 -1.03,-0.16 -0.84,0 -1.54,0.12 -0.7,0.12 -1.14,0.28 l -0.3,-1.96 q 0.46,-0.16 1.34,-0.32 0.88,-0.16 1.88,-0.16 z m 6.62,5.5 q 0,-1.16 0.36,-2.17 0.36,-1.01 1.03,-1.75 0.67,-0.74 1.63,-1.16 0.96,-0.42 2.16,-0.42 1.48,0 2.8,0.54 l -0.52,1.98 q -0.42,-0.18 -0.95,-0.3 -0.53,-0.12 -1.13,-0.12 -1.42,0 -2.16,0.89 -0.74,0.89 -0.74,2.51 0,1.56 0.7,2.47 0.7,0.91 2.36,0.91 0.62,0 1.22,-0.12 0.6,-0.12 1.04,-0.3 l 0.34,2 q -0.4,0.2 -1.21,0.36 -0.81,0.16 -1.67,0.16 -1.34,0 -2.33,-0.41 Q 33.94,23.44 33.29,22.71 32.64,21.98 32.32,20.97 32,19.96 32,18.78 Z M 44.46,24 H 42.04 V 13.54 h 2.42 z m 0.26,-13.52 q 0,0.68 -0.44,1.08 -0.44,0.4 -1.04,0.4 -0.62,0 -1.06,-0.4 -0.44,-0.4 -0.44,-1.08 0,-0.7 0.44,-1.1 0.44,-0.4 1.06,-0.4 0.6,0 1.04,0.4 0.44,0.4 0.44,1.1 z M 51.18,24.2 Q 50.1,24.18 49.39,23.96 48.68,23.74 48.26,23.33 47.84,22.92 47.67,22.31 47.5,21.7 47.5,20.92 V 8.88 l 2.42,-0.4 v 11.98 q 0,0.44 0.07,0.74 0.07,0.3 0.25,0.51 0.18,0.21 0.49,0.32 0.31,0.11 0.79,0.17 z M 55.92,24 H 53.5 V 13.54 h 2.42 z m 0.26,-13.52 q 0,0.68 -0.44,1.08 -0.44,0.4 -1.04,0.4 -0.62,0 -1.06,-0.4 -0.44,-0.4 -0.44,-1.08 0,-0.7 0.44,-1.1 0.44,-0.4 1.06,-0.4 0.6,0 1.04,0.4 0.44,0.4 0.44,1.1 z m 5.54,12.2 q 0,0.7 -0.47,1.14 -0.47,0.44 -1.13,0.44 -0.68,0 -1.14,-0.44 -0.46,-0.44 -0.46,-1.14 0,-0.7 0.46,-1.15 0.46,-0.45 1.14,-0.45 0.66,0 1.13,0.45 0.47,0.45 0.47,1.15 z m 2.02,-3.9 q 0,-1.16 0.36,-2.17 0.36,-1.01 1.03,-1.75 0.67,-0.74 1.63,-1.16 0.96,-0.42 2.16,-0.42 1.48,0 2.8,0.54 L 71.2,15.8 q -0.42,-0.18 -0.95,-0.3 -0.53,-0.12 -1.13,-0.12 -1.42,0 -2.16,0.89 -0.74,0.89 -0.74,2.51 0,1.56 0.7,2.47 0.7,0.91 2.36,0.91 0.62,0 1.22,-0.12 0.6,-0.12 1.04,-0.3 l 0.34,2 q -0.4,0.2 -1.21,0.36 -0.81,0.16 -1.67,0.16 -1.34,0 -2.33,-0.41 -0.99,-0.41 -1.64,-1.14 -0.65,-0.73 -0.97,-1.74 -0.32,-1.01 -0.32,-2.19 z m 19.48,-0.02 q 0,1.24 -0.36,2.26 -0.36,1.02 -1.02,1.74 -0.66,0.72 -1.59,1.12 -0.93,0.4 -2.05,0.4 -1.12,0 -2.04,-0.4 -0.92,-0.4 -1.58,-1.12 -0.66,-0.72 -1.03,-1.74 -0.37,-1.02 -0.37,-2.26 0,-1.24 0.37,-2.25 0.37,-1.01 1.04,-1.73 0.67,-0.72 1.59,-1.11 0.92,-0.39 2.02,-0.39 1.1,0 2.03,0.39 0.93,0.39 1.59,1.11 0.66,0.72 1.03,1.73 0.37,1.01 0.37,2.25 z m -2.48,0 q 0,-1.56 -0.67,-2.47 -0.67,-0.91 -1.87,-0.91 -1.2,0 -1.87,0.91 -0.67,0.91 -0.67,2.47 0,1.58 0.67,2.5 0.67,0.92 1.87,0.92 1.2,0 1.87,-0.92 0.67,-0.92 0.67,-2.5 z M 91.68,18.5 q 0,-1.64 -0.41,-2.37 -0.41,-0.73 -1.53,-0.73 -0.4,0 -0.88,0.06 -0.48,0.06 -0.72,0.1 V 24 H 85.72 V 13.88 q 0.7,-0.2 1.83,-0.38 1.13,-0.18 2.39,-0.18 1.08,0 1.77,0.28 0.69,0.28 1.15,0.74 0.22,-0.16 0.56,-0.34 0.34,-0.18 0.76,-0.33 0.42,-0.15 0.89,-0.25 0.47,-0.1 0.95,-0.1 1.22,0 2.01,0.35 0.79,0.35 1.24,0.98 0.45,0.63 0.62,1.52 0.17,0.89 0.17,1.95 V 24 h -2.42 v -5.5 q 0,-1.64 -0.4,-2.37 -0.4,-0.73 -1.54,-0.73 -0.58,0 -1.1,0.19 -0.52,0.19 -0.78,0.37 0.16,0.5 0.22,1.06 0.06,0.56 0.06,1.2 V 24 h -2.42 z"
       id="path13"
       style="fill:#f68a32;fill-opacity:1"
       inkscape:connector-curvature="0" />
  </g>
</svg>
